<mxfile host="app.diagrams.net" agent="Mozilla/5.0 (Windows NT 10.0; Win64; x64) AppleWebKit/537.36 (KHTML, like Gecko) Chrome/131.0.0.0 Safari/537.36 OPR/116.0.0.0" version="26.0.14">
  <diagram id="R2lEEEUBdFMjLlhIrx00" name="Page-1">
    <mxGraphModel dx="984" dy="528" grid="1" gridSize="10" guides="1" tooltips="1" connect="1" arrows="1" fold="1" page="1" pageScale="1" pageWidth="850" pageHeight="1100" math="0" shadow="0" extFonts="Permanent Marker^https://fonts.googleapis.com/css?family=Permanent+Marker">
      <root>
        <mxCell id="0" />
        <mxCell id="1" parent="0" />
        <mxCell id="xaC-LAVxSsfaFMYe6mu6-1" value="" style="rounded=0;whiteSpace=wrap;html=1;" parent="1" vertex="1">
          <mxGeometry x="145" y="430" width="120" height="60" as="geometry" />
        </mxCell>
        <mxCell id="xaC-LAVxSsfaFMYe6mu6-2" value="" style="rounded=0;whiteSpace=wrap;html=1;" parent="1" vertex="1">
          <mxGeometry x="145" y="430" width="120" height="60" as="geometry" />
        </mxCell>
        <mxCell id="xaC-LAVxSsfaFMYe6mu6-3" value="" style="rounded=0;whiteSpace=wrap;html=1;" parent="1" vertex="1">
          <mxGeometry x="685" y="450" width="120" height="60" as="geometry" />
        </mxCell>
        <mxCell id="xaC-LAVxSsfaFMYe6mu6-4" value="Artistas" style="text;html=1;align=center;verticalAlign=middle;whiteSpace=wrap;rounded=0;" parent="1" vertex="1">
          <mxGeometry x="175" y="445" width="60" height="30" as="geometry" />
        </mxCell>
        <mxCell id="xaC-LAVxSsfaFMYe6mu6-5" value="Albumes" style="text;html=1;align=center;verticalAlign=middle;whiteSpace=wrap;rounded=0;" parent="1" vertex="1">
          <mxGeometry x="715" y="465" width="60" height="30" as="geometry" />
        </mxCell>
        <mxCell id="xaC-LAVxSsfaFMYe6mu6-6" value="" style="rounded=0;whiteSpace=wrap;html=1;" parent="1" vertex="1">
          <mxGeometry x="400" y="220" width="120" height="60" as="geometry" />
        </mxCell>
        <mxCell id="xaC-LAVxSsfaFMYe6mu6-7" value="Canciones" style="text;html=1;align=center;verticalAlign=middle;whiteSpace=wrap;rounded=0;" parent="1" vertex="1">
          <mxGeometry x="430" y="235" width="60" height="30" as="geometry" />
        </mxCell>
        <mxCell id="xaC-LAVxSsfaFMYe6mu6-8" value="" style="ellipse;whiteSpace=wrap;html=1;" parent="1" vertex="1">
          <mxGeometry x="145" y="555.98" width="120" height="80" as="geometry" />
        </mxCell>
        <mxCell id="xaC-LAVxSsfaFMYe6mu6-10" value="" style="endArrow=none;html=1;rounded=0;" parent="1" edge="1">
          <mxGeometry width="50" height="50" relative="1" as="geometry">
            <mxPoint x="204.47" y="555.98" as="sourcePoint" />
            <mxPoint x="204.51" y="490" as="targetPoint" />
          </mxGeometry>
        </mxCell>
        <mxCell id="xaC-LAVxSsfaFMYe6mu6-11" value="nombre" style="text;html=1;align=center;verticalAlign=middle;whiteSpace=wrap;rounded=0;" parent="1" vertex="1">
          <mxGeometry x="175" y="580.98" width="60" height="30" as="geometry" />
        </mxCell>
        <mxCell id="xaC-LAVxSsfaFMYe6mu6-13" value="" style="endArrow=none;html=1;rounded=0;exitX=0.5;exitY=0;exitDx=0;exitDy=0;" parent="1" edge="1">
          <mxGeometry width="50" height="50" relative="1" as="geometry">
            <mxPoint x="744" y="570" as="sourcePoint" />
            <mxPoint x="744" y="510" as="targetPoint" />
          </mxGeometry>
        </mxCell>
        <mxCell id="xaC-LAVxSsfaFMYe6mu6-15" value="" style="ellipse;whiteSpace=wrap;html=1;" parent="1" vertex="1">
          <mxGeometry x="685" y="570" width="120" height="80" as="geometry" />
        </mxCell>
        <mxCell id="xaC-LAVxSsfaFMYe6mu6-16" value="nombre" style="text;html=1;align=center;verticalAlign=middle;whiteSpace=wrap;rounded=0;" parent="1" vertex="1">
          <mxGeometry x="715" y="595" width="60" height="30" as="geometry" />
        </mxCell>
        <mxCell id="xaC-LAVxSsfaFMYe6mu6-17" value="" style="endArrow=none;html=1;rounded=0;entryX=-0.005;entryY=0.136;entryDx=0;entryDy=0;entryPerimeter=0;" parent="1" target="xaC-LAVxSsfaFMYe6mu6-6" edge="1">
          <mxGeometry width="50" height="50" relative="1" as="geometry">
            <mxPoint x="200" y="130" as="sourcePoint" />
            <mxPoint x="390" y="220" as="targetPoint" />
          </mxGeometry>
        </mxCell>
        <mxCell id="xaC-LAVxSsfaFMYe6mu6-18" value="" style="endArrow=none;html=1;rounded=0;" parent="1" edge="1">
          <mxGeometry width="50" height="50" relative="1" as="geometry">
            <mxPoint x="500" y="220" as="sourcePoint" />
            <mxPoint x="670" y="130" as="targetPoint" />
          </mxGeometry>
        </mxCell>
        <mxCell id="xaC-LAVxSsfaFMYe6mu6-19" value="" style="endArrow=none;html=1;rounded=0;entryX=0.5;entryY=1;entryDx=0;entryDy=0;" parent="1" target="xaC-LAVxSsfaFMYe6mu6-21" edge="1">
          <mxGeometry width="50" height="50" relative="1" as="geometry">
            <mxPoint x="460" y="220" as="sourcePoint" />
            <mxPoint x="460" y="130" as="targetPoint" />
          </mxGeometry>
        </mxCell>
        <mxCell id="xaC-LAVxSsfaFMYe6mu6-20" value="" style="ellipse;whiteSpace=wrap;html=1;" parent="1" vertex="1">
          <mxGeometry x="120" y="50" width="120" height="80" as="geometry" />
        </mxCell>
        <mxCell id="xaC-LAVxSsfaFMYe6mu6-21" value="" style="ellipse;whiteSpace=wrap;html=1;" parent="1" vertex="1">
          <mxGeometry x="450" y="50" width="120" height="80" as="geometry" />
        </mxCell>
        <mxCell id="xaC-LAVxSsfaFMYe6mu6-22" value="" style="ellipse;whiteSpace=wrap;html=1;" parent="1" vertex="1">
          <mxGeometry x="620" y="50" width="120" height="80" as="geometry" />
        </mxCell>
        <mxCell id="xaC-LAVxSsfaFMYe6mu6-23" value="nombre" style="text;html=1;align=center;verticalAlign=middle;whiteSpace=wrap;rounded=0;" parent="1" vertex="1">
          <mxGeometry x="150" y="75" width="60" height="30" as="geometry" />
        </mxCell>
        <mxCell id="xaC-LAVxSsfaFMYe6mu6-24" value="anioLanzamiento" style="text;html=1;align=center;verticalAlign=middle;whiteSpace=wrap;rounded=0;" parent="1" vertex="1">
          <mxGeometry x="480" y="75" width="60" height="30" as="geometry" />
        </mxCell>
        <mxCell id="xaC-LAVxSsfaFMYe6mu6-25" value="genero" style="text;html=1;align=center;verticalAlign=middle;whiteSpace=wrap;rounded=0;" parent="1" vertex="1">
          <mxGeometry x="650" y="75" width="60" height="30" as="geometry" />
        </mxCell>
        <mxCell id="xaC-LAVxSsfaFMYe6mu6-26" value="" style="rhombus;whiteSpace=wrap;html=1;" parent="1" vertex="1">
          <mxGeometry x="140" y="280" width="130" height="80" as="geometry" />
        </mxCell>
        <mxCell id="xaC-LAVxSsfaFMYe6mu6-27" value="hacen" style="text;html=1;align=center;verticalAlign=middle;whiteSpace=wrap;rounded=0;" parent="1" vertex="1">
          <mxGeometry x="175" y="305" width="60" height="35" as="geometry" />
        </mxCell>
        <mxCell id="xaC-LAVxSsfaFMYe6mu6-28" value="" style="endArrow=none;html=1;rounded=0;" parent="1" edge="1">
          <mxGeometry width="50" height="50" relative="1" as="geometry">
            <mxPoint x="205" y="430" as="sourcePoint" />
            <mxPoint x="205" y="350" as="targetPoint" />
          </mxGeometry>
        </mxCell>
        <mxCell id="xaC-LAVxSsfaFMYe6mu6-29" value="" style="endArrow=none;html=1;rounded=0;exitX=1;exitY=0.5;exitDx=0;exitDy=0;" parent="1" source="xaC-LAVxSsfaFMYe6mu6-26" edge="1">
          <mxGeometry width="50" height="50" relative="1" as="geometry">
            <mxPoint x="395" y="330" as="sourcePoint" />
            <mxPoint x="445" y="280" as="targetPoint" />
          </mxGeometry>
        </mxCell>
        <mxCell id="xaC-LAVxSsfaFMYe6mu6-30" value="" style="rhombus;whiteSpace=wrap;html=1;" parent="1" vertex="1">
          <mxGeometry x="680" y="320" width="130" height="80" as="geometry" />
        </mxCell>
        <mxCell id="xaC-LAVxSsfaFMYe6mu6-32" value="tienen" style="text;html=1;align=center;verticalAlign=middle;whiteSpace=wrap;rounded=0;" parent="1" vertex="1">
          <mxGeometry x="715" y="345" width="60" height="30" as="geometry" />
        </mxCell>
        <mxCell id="xaC-LAVxSsfaFMYe6mu6-33" value="" style="endArrow=none;html=1;rounded=0;entryX=0.75;entryY=1;entryDx=0;entryDy=0;exitX=0;exitY=0.5;exitDx=0;exitDy=0;" parent="1" source="xaC-LAVxSsfaFMYe6mu6-30" edge="1">
          <mxGeometry width="50" height="50" relative="1" as="geometry">
            <mxPoint x="535" y="330" as="sourcePoint" />
            <mxPoint x="475" y="280" as="targetPoint" />
          </mxGeometry>
        </mxCell>
        <mxCell id="xaC-LAVxSsfaFMYe6mu6-34" value="" style="endArrow=none;html=1;rounded=0;entryX=0.5;entryY=1;entryDx=0;entryDy=0;" parent="1" target="xaC-LAVxSsfaFMYe6mu6-30" edge="1">
          <mxGeometry width="50" height="50" relative="1" as="geometry">
            <mxPoint x="745" y="450" as="sourcePoint" />
            <mxPoint x="795" y="400" as="targetPoint" />
          </mxGeometry>
        </mxCell>
        <mxCell id="xaC-LAVxSsfaFMYe6mu6-37" value="" style="endArrow=none;html=1;rounded=0;" parent="1" edge="1">
          <mxGeometry width="50" height="50" relative="1" as="geometry">
            <mxPoint x="535" y="470" as="sourcePoint" />
            <mxPoint x="685" y="475" as="targetPoint" />
            <Array as="points" />
          </mxGeometry>
        </mxCell>
        <mxCell id="xaC-LAVxSsfaFMYe6mu6-38" value="" style="endArrow=none;html=1;rounded=0;" parent="1" edge="1">
          <mxGeometry width="50" height="50" relative="1" as="geometry">
            <mxPoint x="265" y="465" as="sourcePoint" />
            <mxPoint x="415" y="465" as="targetPoint" />
          </mxGeometry>
        </mxCell>
        <mxCell id="xaC-LAVxSsfaFMYe6mu6-39" value="" style="rhombus;whiteSpace=wrap;html=1;" parent="1" vertex="1">
          <mxGeometry x="405" y="430" width="130" height="80" as="geometry" />
        </mxCell>
        <mxCell id="xaC-LAVxSsfaFMYe6mu6-40" value="producen" style="text;html=1;align=center;verticalAlign=middle;whiteSpace=wrap;rounded=0;" parent="1" vertex="1">
          <mxGeometry x="440" y="455" width="60" height="30" as="geometry" />
        </mxCell>
        <mxCell id="xaC-LAVxSsfaFMYe6mu6-41" value="&lt;u&gt;cancionesId&lt;/u&gt;" style="ellipse;whiteSpace=wrap;html=1;" parent="1" vertex="1">
          <mxGeometry x="260" y="50" width="120" height="80" as="geometry" />
        </mxCell>
        <mxCell id="xaC-LAVxSsfaFMYe6mu6-43" value="" style="endArrow=none;html=1;rounded=0;entryX=0.697;entryY=0.951;entryDx=0;entryDy=0;entryPerimeter=0;" parent="1" target="xaC-LAVxSsfaFMYe6mu6-41" edge="1">
          <mxGeometry width="50" height="50" relative="1" as="geometry">
            <mxPoint x="420" y="220" as="sourcePoint" />
            <mxPoint x="470" y="170" as="targetPoint" />
          </mxGeometry>
        </mxCell>
        <mxCell id="xaC-LAVxSsfaFMYe6mu6-44" value="&lt;u&gt;ArtistasId&lt;/u&gt;" style="ellipse;whiteSpace=wrap;html=1;" parent="1" vertex="1">
          <mxGeometry x="305" y="555.98" width="120" height="80" as="geometry" />
        </mxCell>
        <mxCell id="xaC-LAVxSsfaFMYe6mu6-45" value="&lt;u&gt;AlbumesId&lt;/u&gt;" style="ellipse;whiteSpace=wrap;html=1;" parent="1" vertex="1">
          <mxGeometry x="535" y="570" width="120" height="80" as="geometry" />
        </mxCell>
        <mxCell id="xaC-LAVxSsfaFMYe6mu6-46" value="" style="endArrow=none;html=1;rounded=0;exitX=0.5;exitY=0;exitDx=0;exitDy=0;" parent="1" source="xaC-LAVxSsfaFMYe6mu6-44" edge="1">
          <mxGeometry width="50" height="50" relative="1" as="geometry">
            <mxPoint x="195" y="540" as="sourcePoint" />
            <mxPoint x="245" y="490" as="targetPoint" />
          </mxGeometry>
        </mxCell>
        <mxCell id="xaC-LAVxSsfaFMYe6mu6-47" value="" style="endArrow=none;html=1;rounded=0;exitX=0.5;exitY=0;exitDx=0;exitDy=0;" parent="1" source="xaC-LAVxSsfaFMYe6mu6-45" edge="1">
          <mxGeometry width="50" height="50" relative="1" as="geometry">
            <mxPoint x="675" y="560" as="sourcePoint" />
            <mxPoint x="725" y="510" as="targetPoint" />
          </mxGeometry>
        </mxCell>
      </root>
    </mxGraphModel>
  </diagram>
</mxfile>
